<svg width="80" height="60" viewBox="0 0 80 60" fill="none" xmlns="http://www.w3.org/2000/svg">
<path fill-rule="evenodd" clip-rule="evenodd" d="M33.3669 0H20.6448V6.987C19.535 7.34683 18.4661 7.79695 17.4467 8.32865L12.484 3.36569L3.47652 12.3273L8.49892 17.35C7.94892 18.4273 7.49022 19.5587 7.13298 20.7342L0 20.8083L0.132468 33.4976L7.32459 33.4229C7.69309 34.5147 8.14992 35.566 8.6866 36.5684L3.66635 41.72L12.7889 50.5651L17.8079 45.4148C18.7177 45.867 19.6654 46.2549 20.6448 46.5725V53.7461H33.3669V46.6322C34.454 46.291 35.5027 45.8635 36.5049 45.3577L41.5275 50.3806L50.535 41.4189L45.5721 36.4557C46.1494 35.3613 46.6318 34.2094 47.0085 33.0107L54.0114 32.938L53.8789 20.2486L46.9354 20.3207C46.5563 19.1616 46.0779 18.0471 45.5102 16.9874L50.3452 12.026L41.2227 3.18087L36.3872 8.14287C35.4207 7.66269 34.4115 7.25512 33.3669 6.92731V0ZM27.0059 41.0147C34.9926 41.0147 41.467 34.5565 41.467 26.59C41.467 18.6235 34.9926 12.1653 27.0059 12.1653C19.0192 12.1653 12.5448 18.6235 12.5448 26.59C12.5448 34.5565 19.0192 41.0147 27.0059 41.0147Z" fill="#A8A8A8"/>
<path fill-rule="evenodd" clip-rule="evenodd" d="M61.5562 28.6274L55.7659 30.7287L56.8699 34.2623C56.3767 34.6037 55.9189 34.9841 55.4991 35.3976L50.8944 33.2764L49.0369 40.602L52.4151 42.1582C52.4005 42.3946 52.394 42.6323 52.3957 42.8706L48.5336 44.0967L50.6284 49.9572L54.3102 48.7883C54.6137 49.2157 54.9471 49.6158 55.3063 49.9868L53.3509 54.4282L61.0355 56.5982L62.5515 53.1548C62.6254 53.1565 62.6993 53.1574 62.7734 53.1576L63.9898 57.0509L69.7801 54.9495L68.6572 51.3553C69.142 51.0267 69.5934 50.6607 70.0089 50.2628L74.6518 52.4016L76.5092 45.076L73.1868 43.5455C73.206 43.2937 73.2159 43.0406 73.2164 42.7864L77.0125 41.5813L74.9177 35.7209L71.3578 36.851C71.0369 36.3899 70.6814 35.9598 70.2964 35.5631L72.1953 31.2498L64.5107 29.0797L63.047 32.4044C62.9434 32.4021 62.8396 32.4014 62.7356 32.4022L61.5562 28.6274ZM65.1199 49.5305C68.8987 48.2188 70.8931 44.097 69.5745 40.324C68.2559 36.5511 64.1236 34.5559 60.3448 35.8675C56.566 37.1792 54.5716 41.301 55.8902 45.074C57.2088 48.8469 61.3411 50.8421 65.1199 49.5305Z" fill="#1E1515" fill-opacity="0.62"/>
</svg>
