<svg width="375" height="667" viewBox="0 0 375 667" fill="none" xmlns="http://www.w3.org/2000/svg">
<rect y="-1.00122" width="374.999" height="668.001" fill="#FFC79B"/>
<path fill-rule="evenodd" clip-rule="evenodd" d="M374.683 454.86C374.892 452.84 374.999 450.79 374.999 448.715V57.7375C374.999 25.1528 348.584 -1.26245 315.999 -1.26245H54.194C48.4616 -1.26245 42.92 -0.444913 37.6797 1.07993C216.294 24.1623 358.278 215.16 374.683 454.86Z" fill="#FEE19F"/>
<path d="M90.3277 158.799C90.3277 158.799 90.0047 159 89.3589 159.401C89.0492 159.594 88.721 159.786 88.3743 159.976L97.9634 177.078C98.236 176.884 98.5183 176.696 98.8102 176.515C99.111 176.328 99.4066 176.132 99.6969 175.927L90.3277 158.799ZM107.111 164L109.739 171.102C109.818 171.298 109.82 171.487 109.745 171.669C109.675 171.859 109.556 172.006 109.388 172.111L109.308 172.16C107.773 172.918 105.44 174.27 102.308 176.217C99.1583 178.174 96.9354 179.654 95.6393 180.655L95.5862 180.688C95.1704 180.947 94.802 180.863 94.481 180.437C94.3759 180.257 94.3415 180.064 94.3777 179.858C94.4228 179.646 94.5436 179.46 94.7402 179.302C94.9456 179.137 95.2067 178.944 95.5236 178.723C95.8493 178.496 96.2033 178.245 96.5857 177.971L86.9311 160.726C86.1387 161.145 85.3217 161.543 84.4801 161.918C84.2874 162.001 84.0942 162.011 83.9004 161.948C83.7154 161.879 83.5695 161.743 83.4628 161.539C83.3597 161.321 83.3404 161.113 83.4048 160.913C83.4639 160.705 83.582 160.546 83.7589 160.436L83.8386 160.386C85.6719 159.602 87.3981 158.707 89.0172 157.701C90.6362 156.695 91.8618 155.872 92.6941 155.232L92.7471 155.199C92.9506 155.073 93.1607 155.04 93.3775 155.102C93.589 155.154 93.7499 155.275 93.8602 155.464C93.9706 155.653 94.0032 155.853 93.9581 156.065C93.9078 156.268 93.7596 156.458 93.5135 156.636C93.0142 157.019 92.4123 157.455 91.7078 157.942L101.104 175.053L101.488 174.813C104.187 173.136 106.346 171.868 107.966 171.008L105.655 164.758C105.576 164.562 105.572 164.368 105.642 164.178C105.706 163.978 105.827 163.824 106.004 163.714C106.18 163.604 106.384 163.581 106.615 163.646C106.841 163.702 107.006 163.82 107.111 164ZM108.055 148.426C107.457 148.847 106.834 149.258 106.189 149.659L115.762 166.053C116.061 165.843 116.37 165.638 116.689 165.441C117.016 165.237 117.329 165.03 117.628 164.82L108.055 148.426ZM119.394 163.723C121.773 162.244 123.942 160.982 125.9 159.936L124.266 156.023C124.197 155.822 124.192 155.628 124.253 155.443C124.318 155.244 124.443 155.086 124.629 154.971C124.823 154.85 125.027 154.827 125.24 154.903C125.462 154.974 125.618 155.086 125.707 155.238L125.77 155.346L127.697 159.978C127.776 160.175 127.78 160.368 127.711 160.558C127.646 160.758 127.526 160.913 127.349 161.022L127.322 161.039C124.848 162.356 122.469 163.724 120.186 165.143C117.904 166.561 115.744 168.014 113.706 169.501L113.64 169.542C113.426 169.651 113.216 169.683 113.009 169.64C112.803 169.596 112.645 169.48 112.535 169.291C112.419 169.093 112.386 168.893 112.437 168.69C112.482 168.478 112.614 168.292 112.834 168.131C113.057 167.955 113.307 167.775 113.585 167.59C113.866 167.391 114.143 167.194 114.416 167L104.811 150.552C104.517 150.71 104.229 150.877 103.946 151.053L103.11 151.573C102.913 151.67 102.712 151.697 102.506 151.654C102.294 151.601 102.131 151.476 102.015 151.278C101.9 151.081 101.873 150.87 101.936 150.647C101.994 150.415 102.153 150.224 102.415 150.074C102.686 149.918 102.976 149.744 103.286 149.551L104.228 148.966C107.97 146.64 111.535 144.081 114.921 141.29L115.04 141.216C115.217 141.106 115.404 141.076 115.602 141.125C115.794 141.164 115.951 141.257 116.072 141.403L119.306 145.608L119.361 145.703C119.482 145.91 119.504 146.123 119.427 146.342C119.359 146.556 119.236 146.718 119.059 146.828C118.891 146.933 118.709 146.972 118.514 146.947C118.321 146.907 118.155 146.808 118.015 146.65L115.291 143.101C113.681 144.433 111.723 145.901 109.417 147.506L114.609 156.398C116.464 155.135 117.867 154.067 118.816 153.195L118.949 153.112C119.135 152.997 119.34 152.967 119.566 153.023C119.786 153.07 119.949 153.184 120.054 153.363C120.275 153.741 120.224 154.098 119.901 154.433C118.978 155.289 117.49 156.416 115.437 157.815L119.022 163.954L119.394 163.723ZM128.986 135.271C128.986 135.271 128.344 135.657 127.06 136.431L136.483 153.249C136.623 153.138 136.768 153.035 136.919 152.942C137.202 152.766 137.454 152.609 137.675 152.472C137.896 152.334 138.087 152.228 138.248 152.152L128.986 135.271ZM120.321 138.21C122.308 137.318 124.788 135.949 127.761 134.101C130.734 132.254 132.742 130.944 133.787 130.173L133.84 130.14C133.999 130.041 134.179 130.008 134.38 130.043C134.576 130.068 134.705 130.123 134.766 130.208C134.831 130.278 134.919 130.376 135.029 130.504C135.14 130.631 135.288 130.803 135.474 131.018C135.66 131.233 135.876 131.479 136.122 131.756C136.377 132.026 136.644 132.308 136.923 132.6C137.62 133.319 138.192 133.865 138.639 134.237L138.799 134.45C138.909 134.639 138.931 134.852 138.865 135.09C138.808 135.322 138.699 135.487 138.54 135.586C138.204 135.795 137.881 135.769 137.572 135.507C136.318 134.435 135.17 133.254 134.128 131.965C133.151 132.646 131.897 133.462 130.367 134.413L139.66 151.349C141.222 150.451 142.124 150.044 142.365 150.127C142.601 150.201 142.78 150.341 142.901 150.548C143.016 150.746 143.036 150.955 142.959 151.174C142.896 151.397 142.785 151.558 142.626 151.657L142.546 151.707C141.236 152.312 139.784 153.11 138.192 154.1C136.599 155.09 135.268 156.021 134.199 156.894L134.119 156.944C133.924 157.065 133.712 157.093 133.481 157.028C133.259 156.957 133.095 156.832 132.99 156.652C132.885 156.472 132.851 156.279 132.887 156.073C132.962 155.768 133.707 155.134 135.121 154.169L125.648 137.235C124.219 138.05 122.878 138.779 121.626 139.422C121.714 139.698 121.821 140.036 121.947 140.436C122.081 140.831 122.219 141.254 122.362 141.705C122.762 143.05 123.003 143.887 123.086 144.215C123.223 144.78 123.128 145.164 122.801 145.367C122.597 145.494 122.387 145.526 122.17 145.465C121.948 145.395 121.806 145.305 121.743 145.197L121.616 144.982C121.595 144.946 121.547 144.78 121.471 144.484C121.403 144.182 121.27 143.707 121.072 143.058C120.874 142.409 120.683 141.804 120.501 141.243C120.1 139.959 119.887 139.295 119.861 139.25C119.743 138.821 119.861 138.496 120.215 138.276L120.321 138.21ZM140.495 122.767L139.089 123.641L139.238 126.932L140.495 122.767ZM141.507 120.225C141.711 120.099 141.921 120.066 142.138 120.128C142.349 120.18 142.515 120.31 142.636 120.517C142.757 120.724 142.773 120.947 142.683 121.186L139.403 131.923C139.334 132.113 139.202 132.269 139.007 132.39C138.821 132.506 138.622 132.537 138.411 132.485C138.194 132.423 138.041 132.316 137.952 132.163C137.863 132.01 137.816 131.868 137.811 131.736L137.439 123.232C137.444 122.91 137.583 122.664 137.858 122.493L141.507 120.225ZM166.99 131.991C166.92 131.581 166.795 131.224 166.617 130.918C166.438 130.612 166.192 130.366 165.879 130.181C165.575 129.99 165.245 129.87 164.891 129.821C164.531 129.762 164.157 129.762 163.768 129.819C163.375 129.868 162.985 129.944 162.6 130.049C162.215 130.153 161.845 130.273 161.49 130.408C161.129 130.534 160.773 130.657 160.421 130.778C160.078 130.893 159.689 131.031 159.252 131.192C158.824 131.347 158.387 131.496 157.94 131.639C157.497 131.768 157.049 131.868 156.597 131.941C156.154 132.008 155.723 132.024 155.305 131.99C154.4 131.927 153.654 131.569 153.068 130.916C153.13 131.539 153.301 132.089 153.579 132.565C153.858 133.042 154.171 133.393 154.519 133.618C154.877 133.837 155.259 133.986 155.666 134.064C156.082 134.136 156.513 134.151 156.958 134.107C157.397 134.055 157.837 133.971 158.277 133.857C159.042 133.639 159.683 133.406 160.201 133.158C160.728 132.904 161.167 132.705 161.517 132.561C161.871 132.402 162.248 132.254 162.649 132.115C163.05 131.976 163.462 131.855 163.884 131.752C164.301 131.64 164.705 131.567 165.095 131.533C165.958 131.462 166.59 131.615 166.99 131.991ZM160.831 125.006C159.154 124.798 157.426 125.246 155.648 126.351C154.577 127.017 153.99 127.786 153.885 128.661C153.852 128.975 153.922 129.281 154.096 129.578C154.269 129.875 154.507 130.076 154.81 130.182C155.108 130.279 155.441 130.323 155.81 130.315C156.179 130.306 156.565 130.256 156.97 130.164C157.383 130.066 157.777 129.957 158.152 129.834C158.535 129.706 158.884 129.581 159.199 129.459C159.523 129.332 159.903 129.187 160.339 129.026C160.785 128.86 161.391 128.679 162.157 128.485C162.928 128.276 163.68 128.17 164.414 128.168C166.086 128.182 167.304 128.842 168.065 130.146C168.906 131.586 168.908 133.159 168.073 134.868C167.327 136.398 166.259 137.595 164.87 138.458C162.543 139.904 160.186 140.431 157.799 140.039L158.067 140.498C158.151 140.642 158.241 140.776 158.338 140.899L158.369 140.953C158.474 141.133 158.507 141.334 158.467 141.555C158.436 141.77 158.323 141.938 158.129 142.059C157.943 142.175 157.738 142.216 157.514 142.184C157.304 142.155 157.138 142.056 157.015 141.887C156.892 141.718 156.778 141.544 156.673 141.364L156.342 140.797C155.922 140.077 155.574 139.429 155.298 138.853C155.016 138.268 154.851 137.923 154.802 137.819C154.762 137.709 154.77 137.557 154.825 137.363C154.885 137.155 155.012 136.99 155.206 136.869C155.41 136.743 155.615 136.713 155.823 136.78C156.031 136.847 156.185 136.966 156.285 137.136L156.332 137.217C156.447 137.477 156.589 137.781 156.757 138.13C159.273 138.847 161.699 138.479 164.035 137.028C165.079 136.379 165.822 135.678 166.263 134.926C166.559 134.423 166.603 133.991 166.393 133.632C165.952 132.876 164.438 133.062 161.854 134.191C161.594 134.303 161.23 134.474 160.761 134.704C160.296 134.92 159.629 135.15 158.759 135.396C157.894 135.628 157.052 135.734 156.233 135.716C154.41 135.672 153.082 134.934 152.246 133.504C151.359 131.984 151.208 130.374 151.794 128.673C152.325 127.104 153.334 125.858 154.821 124.935C156.74 123.742 158.649 123.199 160.545 123.308C160.387 122.254 160.394 121.594 160.564 121.328C160.648 121.203 160.765 121.093 160.915 121C161.074 120.901 161.262 120.882 161.479 120.944C161.691 120.996 161.844 121.103 161.938 121.265C162.033 121.427 162.081 121.747 162.082 122.224C162.092 123.603 162.381 124.956 162.951 126.282C163.024 126.469 163.028 126.663 162.964 126.862C162.899 127.061 162.774 127.219 162.589 127.334C162.403 127.45 162.202 127.477 161.985 127.415C161.763 127.345 161.599 127.22 161.494 127.04L161.431 126.932C161.203 126.314 161.003 125.672 160.831 125.006ZM184.074 124.078C184.886 123.671 185.538 123.333 186.032 123.063L175.891 105.698C175.342 106.1 174.763 106.565 174.153 107.09L184.074 124.078ZM192.791 110.293C192.56 109.382 192.111 108.355 191.444 107.213C190.772 106.062 189.874 105.081 188.75 104.272C187.621 103.453 186.418 102.932 185.141 102.708C182.523 102.251 179.899 102.95 177.268 104.805L187.425 122.197C190.056 120.673 191.792 118.515 192.634 115.723C193.186 113.922 193.238 112.112 192.791 110.293ZM172.915 108.191L171.152 110.004C170.949 110.13 170.743 110.16 170.535 110.093C170.322 110.017 170.165 109.894 170.066 109.723C169.855 109.363 169.879 109.042 170.136 108.76C170.166 108.729 170.327 108.549 170.618 108.221C170.912 107.879 171.323 107.458 171.851 106.958C173.227 105.637 174.702 104.488 176.276 103.509C177.86 102.525 179.439 101.832 181.013 101.43C182.582 101.019 184.097 100.929 185.559 101.161C188.683 101.659 191.191 103.527 193.082 106.765C194.332 108.906 194.881 111.115 194.728 113.393C194.584 115.48 193.846 117.49 192.514 119.421C191.218 121.269 189.517 122.847 187.411 124.155C185.27 125.486 183.15 126.399 181.052 126.894C180.669 126.96 180.401 126.863 180.249 126.602C180.096 126.341 180.056 126.097 180.127 125.868C180.199 125.64 180.323 125.471 180.5 125.361L182.568 124.72L172.915 108.191ZM205.732 109.533C203.216 108.694 200.912 106.484 198.822 102.904C196.773 99.3958 196.236 96.1127 197.212 93.0546C197.233 92.9676 197.268 92.8724 197.316 92.769C196.181 94.4183 195.585 96.2782 195.528 98.3487C195.466 100.472 195.973 102.455 197.05 104.299C198.505 106.791 200.564 108.417 203.227 109.177C204.052 109.413 204.887 109.531 205.732 109.533ZM213.516 94.121C213.143 93.4824 212.683 92.8797 212.135 92.3131C211.582 91.7374 210.973 91.221 210.308 90.7637C209.646 90.292 208.944 89.8948 208.201 89.572C207.461 89.2348 206.727 88.9987 205.997 88.8639C204.387 88.5647 203.029 88.7588 201.923 89.446C199.747 90.7986 198.588 92.7573 198.446 95.3221C198.324 97.592 198.91 99.8334 200.202 102.046C201.147 103.665 202.04 104.864 202.88 105.641C203.72 106.419 204.466 107.004 205.117 107.396C205.771 107.774 206.455 108.035 207.167 108.181C208.68 108.479 210.184 108.164 211.679 107.235C212.873 106.492 213.766 105.306 214.357 103.676C214.885 102.184 215.069 100.537 214.909 98.7357C214.748 96.9725 214.283 95.4343 213.516 94.121ZM214.897 93.2633C215.432 94.1808 215.838 95.1545 216.114 96.1845C216.394 97.2 216.547 98.2265 216.574 99.264C216.61 100.296 216.518 101.316 216.298 102.323C216.079 103.33 215.749 104.282 215.309 105.181C214.376 107.073 213.051 108.552 211.335 109.619C208.707 111.252 205.85 111.636 202.764 110.77C200.833 110.23 199.117 109.212 197.617 107.717C196.867 106.969 196.213 106.119 195.657 105.165C194.559 103.285 193.975 101.264 193.905 99.1001C193.837 97.0216 194.257 95.0564 195.165 93.2047C196.091 91.342 197.426 89.8691 199.168 88.7859C200.964 87.6697 202.92 87.147 205.036 87.2178C207.017 87.286 208.893 87.8668 210.665 88.9601C212.446 90.0479 213.857 91.4823 214.897 93.2633Z" fill="#4F4F4F"/>
<path d="M71.5388 302.419C73.5597 301.45 75.1849 300.643 76.4145 299.997L52.091 256.719C50.7194 257.689 49.2706 258.81 47.7445 260.083L71.5388 302.419ZM93.6278 268.764C93.096 266.506 92.03 263.954 90.4298 261.107C88.8171 258.237 86.64 255.78 83.8984 253.736C81.1443 251.668 78.196 250.332 75.0536 249.725C68.6081 248.488 62.0999 250.104 55.5292 254.573L79.8905 297.918C86.4483 294.266 90.8239 289.013 93.0173 282.159C94.4533 277.736 94.6568 273.271 93.6278 268.764ZM44.6418 262.747L40.2145 267.147C39.7069 267.451 39.1978 267.516 38.6872 267.342C38.164 267.146 37.7828 266.835 37.5434 266.409C37.0394 265.512 37.1106 264.72 37.7571 264.034C37.8328 263.959 38.2364 263.523 38.968 262.726C39.7091 261.893 40.7418 260.871 42.0661 259.66C45.5158 256.458 49.2048 253.683 53.1333 251.333C57.0838 248.97 61.0104 247.326 64.9131 246.399C68.8031 245.451 72.5479 245.293 76.1473 245.926C83.8411 247.285 89.9559 252 94.4917 260.07C97.4904 265.406 98.7539 270.88 98.282 276.494C97.8418 281.64 95.9376 286.568 92.5693 291.279C89.2925 295.785 85.0278 299.608 79.7751 302.75C74.4342 305.944 69.163 308.109 63.9616 309.243C63.0128 309.391 62.3557 309.14 61.9903 308.49C61.6249 307.84 61.5353 307.234 61.7215 306.673C61.9077 306.113 62.2215 305.7 62.6629 305.436L67.7935 303.94L44.6418 262.747ZM103.72 226.514C103.72 226.514 102.915 226.996 101.303 227.959C100.531 228.421 99.7128 228.881 98.849 229.337L121.386 271.168L125.789 268.535L103.72 226.514ZM87.6335 230.159C92.3561 228.174 96.6927 225.999 100.643 223.636C104.594 221.274 107.609 219.32 109.69 217.776L109.823 217.697C110.33 217.393 110.851 217.322 111.383 217.482C111.916 217.643 112.315 217.959 112.579 218.43C112.831 218.878 112.897 219.363 112.777 219.884C112.645 220.382 112.277 220.857 111.675 221.307C110.59 222.105 109.086 223.155 107.163 224.455L129.407 266.551C130.715 265.888 132.523 264.986 134.831 263.845C135.994 263.449 136.872 263.778 137.464 264.832C137.697 265.351 137.713 265.851 137.511 266.331C137.343 266.821 137.039 267.197 136.598 267.461L136.465 267.541C129.022 271.034 122.059 275.199 115.576 280.034L115.444 280.114C114.936 280.417 114.422 280.5 113.902 280.362C113.37 280.201 112.977 279.896 112.725 279.448C112.473 279 112.396 278.522 112.494 278.014C112.614 277.493 112.964 277.014 113.544 276.577C114.147 276.127 114.837 275.624 115.616 275.068C116.417 274.499 117.207 273.937 117.985 273.382L95.236 231.094C93.2624 232.095 91.2289 233.041 89.1356 233.934C88.6564 234.131 88.1788 234.147 87.7029 233.982C87.2491 233.804 86.8836 233.469 86.6064 232.975C86.3292 232.482 86.3073 231.971 86.5408 231.442C86.7616 230.891 87.0597 230.503 87.4349 230.278L87.6335 230.159ZM134.092 207.675C134.092 207.675 133.286 208.157 131.675 209.12C130.903 209.582 130.084 210.041 129.221 210.498L152.117 252.968L156.519 250.334L134.092 207.675ZM151.829 191.54C152.998 191.05 154.311 190.369 155.768 189.498C158.637 187.782 161.286 185.674 163.714 183.173C163.777 183.076 163.985 182.921 164.338 182.71C164.691 182.499 165.123 182.48 165.634 182.654C166.154 182.792 166.527 183.063 166.754 183.467C167.283 184.408 167.224 185.222 166.578 185.908C165.165 187.382 163.82 188.636 162.543 189.669C167.184 195.461 171.124 201.237 174.362 206.998C179.099 215.427 183.567 224.767 187.764 235.017C188.067 236.184 187.798 237.018 186.96 237.52C186.143 238.008 185.39 237.98 184.7 237.434C180.55 234.195 175.076 230.489 168.278 226.318C161.468 222.123 156.633 219.16 153.771 217.426C148.852 214.498 144.004 211.616 139.226 208.782L160.137 248.35C161.446 247.688 163.254 246.786 165.562 245.645C166.041 245.448 166.518 245.432 166.994 245.597C167.492 245.749 167.88 246.071 168.157 246.564C168.422 247.035 168.454 247.539 168.256 248.078C168.057 248.616 167.748 249.01 167.328 249.261L167.196 249.34C159.753 252.834 152.789 256.998 146.307 261.834L146.174 261.913C145.689 262.204 145.169 262.275 144.614 262.128C144.094 261.989 143.708 261.696 143.456 261.248C143.204 260.799 143.127 260.321 143.225 259.813C143.345 259.292 143.695 258.813 144.275 258.377C144.877 257.927 145.568 257.424 146.347 256.868C147.147 256.299 147.937 255.737 148.716 255.181L125.626 212.288C123.653 213.289 121.619 214.236 119.526 215.128C119.047 215.325 118.569 215.341 118.093 215.176C117.627 214.976 117.255 214.629 116.978 214.136C116.701 213.643 116.679 213.132 116.912 212.603C117.133 212.051 117.431 211.663 117.806 211.439L118.005 211.32C123.27 209.04 128.021 206.633 132.259 204.098L134.708 202.633C135.348 202.25 135.88 202.172 136.302 202.399C136.712 202.603 137.399 202.986 138.363 203.548C139.327 204.109 140.58 204.843 142.121 205.748C143.662 206.654 145.433 207.706 147.434 208.905C149.457 210.092 151.605 211.368 153.877 212.735C156.171 214.089 158.532 215.508 160.958 216.992C163.385 218.476 165.783 219.962 168.153 221.45C173.834 225.001 178.207 227.823 181.27 229.915C178.023 222.511 174.944 216.22 172.034 211.041C168.241 204.294 163.981 197.946 159.252 191.998C158.99 192.214 158.727 192.401 158.462 192.56L157.601 193.075C154.6 194.87 152.792 195.667 152.177 195.465C151.55 195.241 151.104 194.894 150.839 194.423C150.575 193.952 150.524 193.443 150.689 192.896C150.875 192.335 151.189 191.923 151.63 191.659L151.829 191.54ZM189.774 174.371C189.774 174.371 188.969 174.853 187.357 175.817C186.585 176.279 185.767 176.738 184.903 177.195L207.799 219.664L212.202 217.031L189.774 174.371ZM207.511 158.236C208.681 157.746 209.994 157.066 211.45 156.195C214.319 154.479 216.968 152.37 219.396 149.87C219.459 149.772 219.667 149.618 220.02 149.406C220.374 149.195 220.805 149.177 221.316 149.35C221.836 149.489 222.209 149.76 222.436 150.163C222.965 151.105 222.907 151.919 222.26 152.605C220.848 154.079 219.503 155.332 218.226 156.366C222.866 162.157 226.806 167.933 230.044 173.695C234.781 182.124 239.249 191.463 243.447 201.713C243.749 202.88 243.481 203.715 242.642 204.216C241.825 204.705 241.072 204.676 240.382 204.13C236.232 200.891 230.758 197.186 223.961 193.014C217.151 188.82 212.315 185.856 209.454 184.123C204.534 181.194 199.686 178.313 194.908 175.479L215.82 215.047C217.128 214.384 218.936 213.482 221.244 212.342C221.723 212.145 222.201 212.129 222.677 212.294C223.175 212.445 223.562 212.767 223.839 213.261C224.104 213.731 224.137 214.236 223.938 214.774C223.739 215.312 223.43 215.707 223.011 215.958L222.878 216.037C215.435 219.53 208.472 223.695 201.989 228.531L201.857 228.61C201.371 228.9 200.851 228.972 200.296 228.824C199.776 228.686 199.39 228.393 199.138 227.944C198.886 227.496 198.809 227.018 198.907 226.51C199.027 225.989 199.377 225.51 199.957 225.073C200.56 224.623 201.25 224.12 202.029 223.564C202.83 222.996 203.62 222.433 204.398 221.878L181.309 178.985C179.335 179.986 177.302 180.932 175.208 181.825C174.729 182.022 174.252 182.038 173.776 181.873C173.309 181.673 172.938 181.326 172.66 180.833C172.383 180.339 172.361 179.828 172.595 179.299C172.816 178.748 173.114 178.36 173.489 178.136L173.687 178.017C178.952 175.736 183.704 173.329 187.941 170.795L190.391 169.33C191.031 168.947 191.562 168.869 191.984 169.095C192.394 169.3 193.081 169.683 194.045 170.244C195.01 170.806 196.262 171.539 197.803 172.445C199.344 173.35 201.115 174.402 203.116 175.602C205.14 176.788 207.287 178.065 209.559 179.432C211.854 180.785 214.214 182.204 216.64 183.688C219.067 185.172 221.465 186.659 223.835 188.147C229.517 191.698 233.889 194.519 236.952 196.611C233.705 189.208 230.627 182.916 227.716 177.738C223.924 170.99 219.663 164.642 214.934 158.694C214.672 158.91 214.409 159.098 214.144 159.256L213.283 159.771C210.282 161.566 208.474 162.363 207.859 162.162C207.232 161.938 206.786 161.59 206.522 161.119C206.257 160.649 206.207 160.14 206.371 159.592C206.557 159.031 206.871 158.619 207.312 158.355L207.511 158.236ZM245.082 142.684C243.588 143.698 242.035 144.687 240.424 145.65L263.387 186.507C264.134 186 264.905 185.509 265.699 185.034C266.516 184.546 267.298 184.048 268.045 183.541L245.082 142.684ZM272.448 180.908C278.385 177.357 283.792 174.333 288.669 171.835L284.796 162.11C284.632 161.609 284.629 161.131 284.787 160.678C284.954 160.188 285.27 159.805 285.733 159.528C286.219 159.237 286.723 159.19 287.246 159.387C287.791 159.57 288.171 159.852 288.385 160.233L288.536 160.502L293.104 172.013C293.29 172.501 293.293 172.979 293.113 173.446C292.946 173.935 292.641 174.312 292.2 174.576L292.134 174.615C285.97 177.763 280.041 181.039 274.347 184.445C268.653 187.85 263.26 191.345 258.168 194.93L258.003 195.029C257.47 195.288 256.95 195.359 256.442 195.243C255.935 195.128 255.549 194.834 255.284 194.364C255.007 193.87 254.935 193.374 255.067 192.876C255.187 192.355 255.522 191.9 256.07 191.512C256.628 191.088 257.254 190.654 257.948 190.209C258.651 189.729 259.343 189.255 260.024 188.788L236.986 147.796C236.254 148.174 235.535 148.574 234.829 148.996L232.744 150.244C232.255 150.476 231.757 150.534 231.249 150.419C230.729 150.28 230.331 149.965 230.054 149.471C229.776 148.978 229.72 148.458 229.884 147.91C230.035 147.34 230.438 146.875 231.09 146.515C231.765 146.141 232.488 145.724 233.261 145.262L235.611 143.856C244.947 138.272 253.852 132.107 262.328 125.36L262.626 125.182C263.067 124.918 263.531 124.851 264.016 124.98C264.489 125.086 264.872 125.322 265.165 125.686L272.976 136.2L273.108 136.436C273.398 136.951 273.444 137.478 273.245 138.016C273.068 138.541 272.759 138.936 272.318 139.2C271.898 139.451 271.448 139.541 270.965 139.47C270.493 139.363 270.086 139.112 269.746 138.716L263.168 129.845C259.138 133.064 254.243 136.606 248.483 140.471L260.937 162.631C265.569 159.591 269.075 157.015 271.456 154.902L271.787 154.704C272.25 154.427 272.759 154.362 273.314 154.51C273.856 154.635 274.253 154.921 274.505 155.37C275.034 156.311 274.894 157.189 274.083 158.003C271.769 160.077 268.048 162.796 262.922 166.162L271.521 181.462L272.448 180.908ZM308.097 159.496C309.138 158.724 310.552 157.803 312.339 156.734L289.931 114.108C288.127 115.307 286.579 116.382 285.286 117.335L308.097 159.496ZM333.332 145.212C329.736 143.588 326.023 139.369 322.193 132.554L321.513 131.343C321.286 130.94 321.106 130.568 320.974 130.228C318.972 131.965 317.592 133.104 316.836 133.647C317.1 134.327 317.572 135.273 318.253 136.483C318.921 137.671 319.776 138.957 320.819 140.34C321.884 141.71 323.068 142.874 324.373 143.831C327.294 146.038 330.281 146.498 333.332 145.212ZM305.554 135.137C307.209 134.567 308.963 133.727 310.817 132.618C312.671 131.51 314.249 130.461 315.551 129.472C316.853 128.484 318.066 127.414 319.188 126.264C320.333 125.1 321.337 123.87 322.202 122.574C323.053 121.256 323.686 119.889 324.099 118.474C324.945 115.362 324.543 112.337 322.892 109.401C320.41 104.984 316.608 103.125 311.486 103.822C308.399 104.26 305.482 105.181 302.733 106.586C299.971 107.968 298.005 109.009 296.835 109.709L294.452 111.134C294.033 111.385 293.648 111.645 293.298 111.915L305.554 135.137ZM337.603 130.616L336.951 129.613C336.661 129.098 336.604 128.577 336.781 128.052C336.98 127.514 337.3 127.113 337.741 126.849C338.183 126.585 338.657 126.511 339.165 126.627C339.659 126.72 340.055 126.978 340.351 127.4L341.079 128.537C343.158 132.236 343.809 135.861 343.032 139.411C342.249 143.054 340.136 145.905 336.693 147.965L336.594 148.024C330.767 151.299 325.289 150.472 320.159 145.542C318.118 143.588 316.265 141.132 314.602 138.172L313.402 135.88C311.703 136.896 309.739 137.861 307.51 138.775L316.803 156.491C317.105 157.029 317.168 157.561 316.991 158.086C316.824 158.575 316.498 158.965 316.012 159.255C310.848 162.344 306.298 165.425 302.363 168.497L302.165 168.616C301.657 168.92 301.137 168.991 300.604 168.83C300.084 168.692 299.698 168.399 299.446 167.95C299.194 167.502 299.106 167.03 299.182 166.536C299.28 166.028 299.613 165.544 300.18 165.085C300.77 164.613 301.465 164.092 302.266 163.523C303.089 162.941 303.89 162.372 304.668 161.817L282.127 119.899L277.662 123.917C277.57 124.122 277.359 124.323 277.028 124.521C276.697 124.719 276.265 124.738 275.733 124.577C275.2 124.416 274.808 124.112 274.556 123.663C274.052 122.767 274.139 121.951 274.817 121.216C278.408 117.061 284.762 112.257 293.877 106.806C299.148 104.012 303.094 102.192 305.713 101.344C308.355 100.482 310.611 99.9572 312.48 99.7678C314.337 99.5559 316.097 99.6712 317.761 100.114C321.272 101.009 324.13 103.418 326.335 107.342C328.137 110.547 328.799 113.955 328.322 117.566C327.87 121.011 326.4 124.167 323.911 127.033C324.403 128.117 324.875 129.063 325.329 129.87C325.77 130.654 326.241 131.466 326.742 132.305C327.242 133.143 327.82 134.041 328.476 134.997C329.131 135.953 329.843 136.905 330.612 137.853C331.403 138.788 332.198 139.6 332.998 140.289C334.823 141.804 336.364 142.185 337.622 141.433C339.167 140.509 339.773 138.754 339.44 136.167C339.211 134.238 338.598 132.387 337.603 130.616Z" fill="#4F4F4F"/>
</svg>
