<svg width="768" height="1024" viewBox="0 0 768 1024" fill="none" xmlns="http://www.w3.org/2000/svg">
<rect width="768" height="1024" fill="#FFC79B"/>
<path fill-rule="evenodd" clip-rule="evenodd" d="M768.236 927.493V59C768.236 26.4152 741.821 0 709.236 0H54.2496C50.4026 0 46.6417 0.368181 43 1.07123C427.044 24.3309 737.07 423.599 768.236 927.493Z" fill="#FEE19F"/>
<path d="M191.658 321.111C191.658 321.111 191.061 321.456 189.868 322.146C189.296 322.477 188.689 322.806 188.048 323.133L206.391 353.523C206.893 353.188 207.415 352.865 207.954 352.553C208.51 352.232 209.056 351.895 209.591 351.542L191.658 321.111ZM223.09 330.726L228.183 343.31C228.334 343.658 228.343 343.991 228.208 344.309C228.083 344.643 227.866 344.899 227.555 345.079L227.408 345.164C224.567 346.458 220.253 348.777 214.467 352.122C208.648 355.487 204.544 358.034 202.155 359.764L202.057 359.82C201.289 360.264 200.599 360.107 199.989 359.348C199.789 359.029 199.719 358.687 199.781 358.325C199.859 357.952 200.08 357.629 200.442 357.354C200.82 357.07 201.302 356.737 201.887 356.355C202.488 355.964 203.141 355.532 203.846 355.059L185.378 324.415C183.912 325.132 182.399 325.81 180.841 326.45C180.484 326.591 180.124 326.603 179.76 326.486C179.414 326.359 179.138 326.115 178.934 325.754C178.735 325.367 178.694 324.999 178.808 324.65C178.913 324.284 179.129 324.007 179.456 323.818L179.603 323.733C183 322.401 186.193 320.87 189.185 319.141C192.176 317.412 194.438 315.995 195.973 314.89L196.071 314.833C196.447 314.616 196.837 314.564 197.243 314.678C197.639 314.776 197.942 314.993 198.153 315.329C198.364 315.665 198.43 316.019 198.352 316.391C198.264 316.747 197.992 317.078 197.539 317.384C196.618 318.047 195.508 318.798 194.208 319.637L212.19 350.039L212.901 349.628C217.886 346.746 221.878 344.569 224.875 343.098L220.395 332.023C220.243 331.675 220.23 331.334 220.355 331C220.469 330.651 220.69 330.381 221.017 330.192C221.344 330.003 221.723 329.969 222.156 330.09C222.578 330.194 222.889 330.407 223.09 330.726ZM224.426 303.311C223.322 304.037 222.173 304.744 220.98 305.434L239.274 334.577C239.826 334.214 240.397 333.863 240.985 333.522C241.59 333.173 242.168 332.817 242.72 332.454L224.426 303.311ZM245.981 330.569C250.378 328.027 254.387 325.861 258.009 324.072L254.857 317.134C254.721 316.776 254.708 316.435 254.816 316.111C254.931 315.761 255.16 315.487 255.503 315.289C255.863 315.081 256.242 315.047 256.642 315.186C257.058 315.317 257.351 315.517 257.521 315.789L257.642 315.981L261.361 324.194C261.513 324.542 261.526 324.883 261.401 325.217C261.287 325.567 261.066 325.836 260.739 326.025L260.69 326.053C256.112 328.307 251.715 330.653 247.498 333.091C243.281 335.529 239.293 338.031 235.535 340.596L235.412 340.667C235.016 340.853 234.625 340.904 234.24 340.822C233.854 340.74 233.556 340.531 233.345 340.195C233.124 339.843 233.058 339.489 233.146 339.133C233.224 338.761 233.466 338.436 233.871 338.158C234.282 337.855 234.744 337.545 235.257 337.226C235.776 336.882 236.287 336.543 236.79 336.209L218.436 306.97C217.892 307.241 217.359 307.527 216.836 307.829L215.292 308.722C214.928 308.889 214.554 308.931 214.168 308.849C213.772 308.751 213.464 308.526 213.243 308.174C213.022 307.822 212.967 307.451 213.078 307.06C213.179 306.653 213.472 306.32 213.956 306.062C214.456 305.795 214.992 305.496 215.565 305.165L217.305 304.158C224.219 300.161 230.795 295.749 237.033 290.923L237.253 290.795C237.58 290.606 237.928 290.558 238.298 290.649C238.657 290.725 238.951 290.892 239.181 291.152L245.325 298.649L245.43 298.817C245.661 299.185 245.708 299.561 245.571 299.946C245.45 300.321 245.226 300.603 244.899 300.792C244.588 300.971 244.25 301.036 243.884 300.986C243.525 300.91 243.212 300.732 242.946 300.45L237.772 294.124C234.807 296.427 231.196 298.961 226.94 301.727L236.863 317.533C240.286 315.358 242.872 313.514 244.619 312.003L244.864 311.861C245.207 311.663 245.59 311.616 246.012 311.721C246.424 311.809 246.73 312.014 246.931 312.333C247.353 313.005 247.267 313.632 246.675 314.214C244.977 315.697 242.233 317.643 238.444 320.052L245.295 330.965L245.981 330.569ZM263.092 280.695C263.092 280.695 261.905 281.359 259.532 282.688L277.558 312.574C277.816 312.382 278.084 312.205 278.361 312.045C278.884 311.742 279.35 311.473 279.759 311.237C280.168 311 280.521 310.818 280.819 310.689L263.092 280.695ZM247.016 285.641C250.697 284.123 255.284 281.777 260.776 278.602C266.268 275.427 269.977 273.173 271.903 271.842L272.001 271.785C272.296 271.615 272.631 271.563 273.006 271.629C273.372 271.679 273.613 271.779 273.73 271.93C273.853 272.055 274.019 272.231 274.229 272.459C274.438 272.686 274.72 272.992 275.072 273.377C275.425 273.761 275.834 274.2 276.3 274.694C276.782 275.178 277.288 275.681 277.816 276.204C279.136 277.489 280.217 278.466 281.059 279.134L281.364 279.514C281.575 279.849 281.622 280.225 281.505 280.642C281.404 281.049 281.206 281.338 280.912 281.508C280.291 281.867 279.688 281.812 279.104 281.343C276.739 279.42 274.567 277.308 272.588 275.009C270.785 276.182 268.47 277.586 265.642 279.221L283.429 309.311C286.317 307.772 287.987 307.079 288.439 307.232C288.881 307.368 289.218 307.62 289.449 307.988C289.67 308.34 289.711 308.708 289.574 309.093C289.463 309.484 289.26 309.764 288.966 309.934L288.819 310.019C286.393 311.052 283.709 312.418 280.767 314.119C277.824 315.82 275.368 317.426 273.397 318.935L273.25 319.02C272.891 319.228 272.495 319.272 272.063 319.151C271.647 319.021 271.339 318.796 271.138 318.476C270.937 318.157 270.868 317.815 270.93 317.453C271.062 316.918 272.433 315.82 275.044 314.159L256.922 284.066C254.279 285.463 251.799 286.712 249.482 287.812C249.655 288.3 249.863 288.899 250.108 289.607C250.369 290.307 250.638 291.055 250.916 291.853C251.698 294.235 252.171 295.716 252.335 296.296C252.606 297.295 252.439 297.969 251.834 298.319C251.458 298.536 251.067 298.588 250.661 298.474C250.245 298.344 249.977 298.183 249.857 297.991L249.616 297.607C249.576 297.543 249.481 297.249 249.33 296.726C249.196 296.193 248.936 295.352 248.548 294.203C248.161 293.054 247.79 291.983 247.434 290.99C246.653 288.717 246.237 287.541 246.187 287.461C245.955 286.701 246.167 286.132 246.82 285.754L247.016 285.641ZM284.209 258.974L281.61 260.476L281.978 266.279L284.209 258.974ZM286.027 254.523C286.403 254.306 286.793 254.254 287.199 254.368C287.595 254.466 287.908 254.699 288.139 255.067C288.37 255.435 288.405 255.828 288.245 256.248L282.422 275.077C282.297 275.411 282.055 275.682 281.696 275.889C281.352 276.088 280.983 276.138 280.587 276.04C280.181 275.926 279.893 275.733 279.723 275.461C279.552 275.189 279.46 274.937 279.448 274.704L278.523 259.711C278.524 259.144 278.777 258.714 279.284 258.421L286.027 254.523ZM333.856 275.94C333.714 275.216 333.472 274.582 333.131 274.038C332.789 273.495 332.324 273.055 331.735 272.72C331.162 272.376 330.545 272.155 329.883 272.059C329.211 271.946 328.513 271.935 327.79 272.026C327.058 272.101 326.334 272.225 325.619 272.399C324.903 272.573 324.216 272.774 323.558 273.002C322.889 273.214 322.229 273.422 321.576 273.625C320.94 273.818 320.217 274.051 319.408 274.322C318.615 274.585 317.803 274.836 316.974 275.076C316.15 275.29 315.318 275.455 314.477 275.571C313.653 275.677 312.851 275.694 312.07 275.622C310.381 275.487 308.982 274.836 307.871 273.67C308.004 274.769 308.337 275.743 308.869 276.591C309.401 277.438 309.995 278.065 310.65 278.47C311.322 278.866 312.039 279.138 312.8 279.287C313.578 279.426 314.381 279.463 315.209 279.398C316.027 279.317 316.845 279.182 317.662 278.993C319.082 278.63 320.272 278.236 321.231 277.812C322.207 277.379 323.019 277.04 323.667 276.796C324.322 276.526 325.022 276.275 325.766 276.04C326.51 275.806 327.274 275.604 328.059 275.434C328.833 275.248 329.583 275.13 330.31 275.081C331.917 274.98 333.099 275.266 333.856 275.94ZM322.183 263.466C319.051 263.054 315.842 263.798 312.556 265.697C310.579 266.841 309.504 268.181 309.333 269.719C309.28 270.272 309.419 270.813 309.75 271.341C310.081 271.869 310.531 272.23 311.099 272.425C311.657 272.603 312.279 272.69 312.966 272.685C313.654 272.68 314.373 272.602 315.125 272.451C315.893 272.29 316.624 272.107 317.32 271.901C318.031 271.686 318.678 271.475 319.262 271.269C319.861 271.053 320.566 270.809 321.375 270.537C322.201 270.256 323.326 269.954 324.75 269.632C326.181 269.284 327.58 269.118 328.949 269.133C332.068 269.205 334.355 270.399 335.81 272.718C337.416 275.277 337.464 278.049 335.953 281.037C334.604 283.713 332.646 285.793 330.08 287.277C325.781 289.762 321.401 290.627 316.939 289.872L317.451 290.688C317.612 290.944 317.784 291.182 317.967 291.403L318.027 291.499C318.228 291.819 318.294 292.173 318.226 292.561C318.174 292.939 317.968 293.233 317.609 293.441C317.265 293.639 316.885 293.707 316.466 293.643C316.074 293.587 315.761 293.408 315.528 293.107C315.294 292.806 315.077 292.496 314.877 292.176L314.244 291.169C313.441 289.889 312.774 288.738 312.244 287.716C311.703 286.677 311.386 286.065 311.292 285.88C311.214 285.685 311.224 285.417 311.323 285.077C311.427 284.712 311.659 284.425 312.019 284.217C312.395 284 312.778 283.953 313.167 284.076C313.556 284.2 313.846 284.414 314.037 284.717L314.128 284.861C314.35 285.321 314.622 285.861 314.944 286.481C319.655 287.811 324.168 287.229 328.484 284.734C330.412 283.619 331.778 282.405 332.579 281.092C333.119 280.213 333.188 279.454 332.787 278.814C331.944 277.471 329.128 277.758 324.339 279.677C323.858 279.868 323.184 280.16 322.316 280.552C321.455 280.919 320.217 281.308 318.604 281.718C316.996 282.102 315.429 282.267 313.902 282.213C310.503 282.086 308.005 280.751 306.409 278.209C304.713 275.506 304.388 272.665 305.435 269.684C306.383 266.935 308.229 264.766 310.975 263.179C314.522 261.128 318.065 260.224 321.603 260.467C321.281 258.605 321.275 257.442 321.586 256.979C321.738 256.76 321.953 256.571 322.231 256.41C322.525 256.24 322.875 256.212 323.281 256.326C323.677 256.424 323.965 256.617 324.146 256.905C324.327 257.193 324.425 257.757 324.44 258.598C324.496 261.029 325.072 263.42 326.17 265.771C326.311 266.103 326.325 266.444 326.21 266.794C326.095 267.143 325.866 267.417 325.523 267.616C325.18 267.814 324.805 267.856 324.4 267.742C323.984 267.612 323.676 267.387 323.475 267.068L323.354 266.876C322.912 265.78 322.521 264.644 322.183 263.466ZM365.491 262.456C366.993 261.762 368.201 261.184 369.114 260.722L349.735 229.852C348.723 230.546 347.656 231.348 346.534 232.258L365.491 262.456ZM381.368 238.403C380.913 236.791 380.049 234.97 378.774 232.94C377.489 230.893 375.788 229.141 373.67 227.685C371.543 226.212 369.286 225.261 366.9 224.832C362.007 223.956 357.133 225.117 352.279 228.316L371.688 259.233C376.551 256.618 379.73 252.862 381.223 247.967C382.203 244.807 382.251 241.619 381.368 238.403ZM344.255 234.164L341.018 237.311C340.642 237.528 340.259 237.575 339.87 237.451C339.47 237.312 339.175 237.09 338.984 236.786C338.583 236.147 338.618 235.582 339.089 235.091C339.145 235.037 339.439 234.725 339.973 234.156C340.512 233.56 341.267 232.829 342.238 231.963C344.766 229.673 347.485 227.687 350.395 226.005C353.32 224.314 356.245 223.135 359.169 222.469C362.082 221.787 364.905 221.67 367.636 222.118C373.475 223.079 378.201 226.438 381.815 232.195C384.204 236.001 385.287 239.908 385.063 243.916C384.852 247.591 383.531 251.111 381.1 254.478C378.734 257.699 375.605 260.434 371.715 262.683C367.76 264.97 363.832 266.521 359.933 267.337C359.221 267.443 358.719 267.265 358.428 266.801C358.137 266.338 358.055 265.905 358.182 265.505C358.309 265.104 358.537 264.81 358.863 264.621L362.7 263.547L344.255 234.164ZM405.474 237.412C400.76 235.865 396.406 231.91 392.411 225.546C388.496 219.31 387.406 213.51 389.142 208.148C389.179 207.996 389.242 207.829 389.329 207.648C387.258 210.523 386.197 213.784 386.147 217.431C386.088 221.17 387.088 224.679 389.146 227.957C391.926 232.386 395.809 235.306 400.794 236.718C402.338 237.155 403.898 237.386 405.474 237.412ZM419.568 210.466C418.856 209.331 417.981 208.257 416.944 207.243C415.897 206.214 414.747 205.288 413.495 204.464C412.249 203.615 410.929 202.897 409.535 202.308C408.147 201.694 406.771 201.258 405.406 201.001C402.397 200.43 399.871 200.736 397.828 201.917C393.807 204.242 391.699 207.662 391.503 212.177C391.339 216.173 392.491 220.138 394.961 224.072C396.768 226.95 398.465 229.085 400.052 230.478C401.639 231.871 403.045 232.921 404.269 233.63C405.5 234.313 406.781 234.793 408.113 235.069C410.941 235.635 413.737 235.12 416.499 233.523C418.705 232.247 420.338 230.181 421.396 227.324C422.339 224.709 422.637 221.812 422.29 218.635C421.941 215.524 421.034 212.801 419.568 210.466ZM422.118 208.992C423.142 210.623 423.925 212.35 424.468 214.172C425.016 215.969 425.33 217.781 425.409 219.61C425.504 221.43 425.36 223.223 424.978 224.992C424.595 226.76 424.006 228.43 423.211 230.002C421.523 233.31 419.093 235.88 415.922 237.714C411.067 240.52 405.752 241.12 399.975 239.512C396.36 238.508 393.133 236.668 390.296 233.993C388.877 232.656 387.635 231.14 386.571 229.445C384.473 226.103 383.33 222.525 383.141 218.711C382.957 215.047 383.687 211.596 385.33 208.358C387.006 205.101 389.453 202.541 392.673 200.68C395.992 198.761 399.623 197.893 403.569 198.075C407.265 198.248 410.779 199.322 414.112 201.296C417.462 203.261 420.131 205.826 422.118 208.992Z" fill="#4F4F4F"/>
<path d="M148.421 605.619C152.439 603.841 155.67 602.359 158.113 601.172L108.07 518.339C105.352 520.138 102.484 522.221 99.4656 524.588L148.421 605.619ZM191.641 542.443C190.506 538.144 188.293 533.269 185.001 527.82C181.683 522.328 177.247 517.601 171.693 513.64C166.113 509.635 160.166 507.01 153.853 505.764C140.904 503.223 127.917 506.092 114.891 514.371L165.013 597.333C178.037 590.602 186.642 580.769 190.827 567.835C193.568 559.487 193.839 551.023 191.641 542.443ZM93.3317 529.549L84.5976 537.762C83.5901 538.323 82.5723 538.43 81.5442 538.085C80.4903 537.697 79.717 537.095 79.2245 536.28C78.1876 534.564 78.3061 533.064 79.5801 531.782C79.7294 531.642 80.5246 530.827 81.9658 529.337C83.4248 527.78 85.4623 525.872 88.0782 523.614C94.8906 517.645 102.196 512.491 109.993 508.153C117.834 503.79 125.65 500.789 133.439 499.15C141.202 497.467 148.699 497.281 155.928 498.59C171.381 501.401 183.774 510.53 193.106 525.976C199.276 536.188 201.973 546.612 201.2 557.248C200.475 566.996 196.811 576.287 190.207 585.121C183.781 593.569 175.355 600.694 164.929 606.495C154.328 612.393 143.835 616.34 133.451 618.334C131.555 618.586 130.231 618.09 129.479 616.846C128.727 615.601 128.529 614.45 128.885 613.392C129.241 612.334 129.857 611.562 130.733 611.074L140.965 608.391L93.3317 529.549ZM210.568 462.599C210.568 462.599 208.969 463.489 205.771 465.268C204.238 466.121 202.613 466.968 200.896 467.808L247.317 547.841L256.056 542.979L210.568 462.599ZM178.455 469.029C187.855 465.404 196.475 461.411 204.316 457.048C212.158 452.685 218.139 449.07 222.26 446.204L222.523 446.058C223.531 445.497 224.57 445.377 225.642 445.698C226.714 446.019 227.522 446.63 228.067 447.531C228.585 448.389 228.732 449.311 228.508 450.296C228.257 451.238 227.536 452.126 226.343 452.962C224.195 454.444 221.214 456.389 217.401 458.797L263.243 539.324C265.843 538.107 269.438 536.451 274.026 534.357C276.344 533.64 278.112 534.29 279.33 536.307C279.813 537.3 279.859 538.248 279.47 539.153C279.15 540.077 278.551 540.782 277.675 541.27L277.412 541.416C262.609 547.818 248.788 555.508 235.95 564.485L235.687 564.632C234.68 565.192 233.653 565.333 232.607 565.055C231.535 564.735 230.74 564.145 230.222 563.287C229.703 562.429 229.534 561.519 229.715 560.559C229.939 559.574 230.626 558.676 231.775 557.865C232.967 557.029 234.335 556.096 235.878 555.066C237.465 554.011 239.03 552.968 240.573 551.938L193.713 471.031C189.79 472.87 185.745 474.604 181.579 476.234C180.625 476.593 179.669 476.609 178.711 476.282C177.796 475.931 177.054 475.284 176.484 474.34C175.913 473.396 175.854 472.425 176.306 471.429C176.731 470.389 177.316 469.663 178.061 469.248L178.455 469.029ZM270.831 427.779C270.831 427.779 269.232 428.669 266.034 430.448C264.501 431.301 262.876 432.148 261.16 432.988L308.319 514.244L317.058 509.381L270.831 427.779ZM305.868 397.707C308.196 396.813 310.805 395.562 313.697 393.953C319.391 390.785 324.633 386.865 329.42 382.195C329.543 382.012 329.956 381.725 330.656 381.335C331.357 380.945 332.222 380.923 333.25 381.268C334.296 381.546 335.052 382.071 335.519 382.843C336.607 384.646 336.515 386.188 335.241 387.47C332.456 390.223 329.8 392.561 327.274 394.483C336.747 405.609 344.814 416.685 351.476 427.712C361.223 443.846 370.457 461.697 379.179 481.268C379.819 483.491 379.308 485.066 377.643 485.992C376.022 486.894 374.512 486.817 373.113 485.76C364.701 479.491 353.624 472.296 339.88 464.177C326.111 456.015 316.334 450.247 310.549 446.872C300.606 441.168 290.806 435.556 281.149 430.036L324.245 505.727C326.845 504.509 330.44 502.853 335.028 500.759C335.982 500.401 336.938 500.385 337.896 500.711C338.898 501.014 339.684 501.637 340.255 502.581C340.799 503.482 340.88 504.44 340.499 505.455C340.117 506.47 339.51 507.209 338.677 507.672L338.415 507.819C323.611 514.221 309.79 521.91 296.952 530.888L296.689 531.034C295.726 531.57 294.686 531.69 293.57 531.394C292.524 531.116 291.742 530.548 291.224 529.69C290.705 528.831 290.536 527.922 290.717 526.962C290.941 525.977 291.628 525.079 292.777 524.268C293.969 523.432 295.337 522.499 296.88 521.468C298.467 520.414 300.032 519.371 301.575 518.34L254.015 436.275C250.092 438.114 246.048 439.848 241.882 441.478C240.928 441.837 239.972 441.853 239.013 441.526C238.073 441.132 237.317 440.463 236.747 439.519C236.177 438.575 236.117 437.605 236.569 436.609C236.995 435.569 237.58 434.842 238.324 434.428L238.719 434.209C249.195 430.042 258.639 425.619 267.05 420.939L271.912 418.234C273.183 417.527 274.244 417.395 275.097 417.838C275.924 418.238 277.312 418.985 279.261 420.079C281.209 421.173 283.741 422.602 286.856 424.367C289.97 426.131 293.55 428.181 297.595 430.517C301.684 432.828 306.025 435.315 310.618 437.976C315.255 440.613 320.026 443.376 324.932 446.265C329.838 449.154 334.687 452.046 339.48 454.94C350.97 461.848 359.814 467.332 366.014 471.393C359.284 457.251 352.925 445.224 346.937 435.312C339.134 422.397 330.405 410.226 320.751 398.8C320.234 399.202 319.712 399.55 319.186 399.842L317.478 400.793C311.52 404.108 307.923 405.565 306.685 405.164C305.422 404.72 304.519 404.048 303.974 403.147C303.43 402.246 303.314 401.278 303.626 400.245C303.982 399.187 304.598 398.414 305.474 397.926L305.868 397.707ZM381.354 366.285C381.354 366.285 379.755 367.174 376.557 368.954C375.024 369.807 373.399 370.653 371.682 371.494L418.842 452.75L427.581 447.887L381.354 366.285ZM416.391 336.213C418.719 335.319 421.328 334.068 424.219 332.459C429.914 329.29 435.155 325.371 439.943 320.701C440.066 320.517 440.478 320.231 441.179 319.841C441.88 319.451 442.745 319.428 443.773 319.774C444.819 320.052 445.575 320.577 446.041 321.349C447.13 323.151 447.038 324.693 445.764 325.976C442.979 328.729 440.323 331.067 437.797 332.988C447.269 344.114 455.337 355.191 461.999 366.218C471.746 382.351 480.98 400.203 489.701 419.773C490.342 421.997 489.83 423.572 488.166 424.498C486.545 425.4 485.035 425.322 483.636 424.266C475.224 417.996 464.146 410.802 450.403 402.683C436.633 394.521 426.856 388.752 421.072 385.378C411.128 379.674 401.329 374.061 391.672 368.541L434.768 444.233C437.368 443.015 440.962 441.359 445.55 439.265C446.504 438.906 447.46 438.89 448.419 439.217C449.421 439.519 450.207 440.143 450.777 441.087C451.322 441.988 451.403 442.946 451.021 443.961C450.64 444.976 450.032 445.715 449.2 446.178L448.937 446.324C434.134 452.726 420.313 460.416 407.475 469.394L407.212 469.54C406.248 470.076 405.209 470.196 404.093 469.899C403.047 469.621 402.265 469.053 401.746 468.195C401.228 467.337 401.059 466.428 401.24 465.467C401.464 464.482 402.151 463.584 403.3 462.773C404.492 461.938 405.86 461.005 407.403 459.974C408.99 458.919 410.555 457.876 412.098 456.846L364.538 374.781C360.615 376.62 356.57 378.354 352.404 379.984C351.45 380.343 350.494 380.359 349.536 380.032C348.595 379.638 347.84 378.969 347.27 378.025C346.7 377.081 346.64 376.111 347.092 375.114C347.517 374.075 348.102 373.348 348.847 372.934L349.241 372.714C359.718 368.548 369.162 364.125 377.573 359.445L382.435 356.739C383.705 356.033 384.767 355.901 385.62 356.343C386.447 356.743 387.835 357.49 389.783 358.585C391.732 359.679 394.264 361.108 397.378 362.872C400.493 364.637 404.073 366.687 408.118 369.023C412.207 371.334 416.548 373.82 421.141 376.482C425.778 379.119 430.549 381.882 435.455 384.771C440.361 387.66 445.21 390.551 450.002 393.446C461.492 400.354 470.337 405.838 476.536 409.899C469.806 395.756 463.447 383.729 457.459 373.818C449.657 360.903 440.928 348.732 431.274 337.305C430.756 337.708 430.235 338.056 429.709 338.348L428 339.299C422.043 342.614 418.445 344.07 417.208 343.67C415.945 343.226 415.041 342.553 414.497 341.652C413.952 340.751 413.836 339.784 414.148 338.75C414.504 337.692 415.12 336.92 415.996 336.432L416.391 336.213ZM491.176 307.846C488.213 309.724 485.133 311.552 481.935 313.331L529.179 391.53C530.661 390.591 532.19 389.683 533.767 388.806C535.388 387.904 536.939 386.984 538.42 386.045L491.176 307.846ZM547.16 381.182C558.943 374.626 569.682 369.052 579.376 364.461L571.32 345.896C570.977 344.941 570.957 344.035 571.259 343.179C571.579 342.255 572.199 341.538 573.119 341.026C574.083 340.49 575.091 340.416 576.145 340.804C577.243 341.168 578.012 341.714 578.453 342.444L578.764 342.959L588.265 364.933C588.652 365.864 588.672 366.77 588.326 367.651C588.006 368.574 587.408 369.28 586.532 369.767L586.401 369.84C574.15 375.624 562.374 381.661 551.072 387.949C539.77 394.237 529.074 400.705 518.983 407.351L518.655 407.534C517.595 408.009 516.556 408.128 515.536 407.893C514.516 407.658 513.733 407.09 513.189 406.189C512.619 405.245 512.459 404.302 512.709 403.36C512.934 402.375 513.589 401.523 514.676 400.804C515.781 400.017 517.022 399.212 518.398 398.389C519.791 397.499 521.163 396.621 522.513 395.755L475.114 317.299C473.66 317.993 472.232 318.73 470.83 319.51L466.691 321.813C465.719 322.239 464.723 322.335 463.703 322.1C462.657 321.822 461.849 321.211 461.279 320.267C460.708 319.323 460.579 318.334 460.891 317.301C461.178 316.224 461.969 315.354 463.265 314.69C464.605 314.002 466.042 313.231 467.575 312.378L472.24 309.782C490.77 299.472 508.421 288.046 525.193 275.504L525.784 275.175C526.66 274.687 527.586 274.573 528.563 274.833C529.513 275.049 530.287 275.507 530.885 276.206L546.853 296.388L547.126 296.839C547.722 297.826 547.829 298.827 547.447 299.842C547.109 300.833 546.502 301.572 545.626 302.059C544.794 302.522 543.894 302.679 542.925 302.53C541.975 302.313 541.153 301.825 540.459 301.064L527.012 284.037C519.038 290.022 509.341 296.592 497.92 303.75L523.545 346.164C532.73 340.537 539.674 335.756 544.379 331.82L545.036 331.454C545.956 330.942 546.973 330.835 548.089 331.131C549.179 331.385 549.983 331.941 550.501 332.799C551.59 334.601 551.335 336.262 549.737 337.782C545.164 341.645 537.794 346.692 527.628 352.922L545.32 382.206L547.16 381.182ZM617.916 341.642C619.977 340.208 622.781 338.505 626.33 336.53L580.141 254.992C576.565 257.211 573.497 259.205 570.936 260.974L617.916 341.642ZM668.029 315.307C660.777 312.118 653.21 304.002 645.33 290.958L643.93 288.641C643.463 287.869 643.092 287.158 642.817 286.509C638.859 289.743 636.131 291.863 634.631 292.869C635.182 294.168 636.157 295.976 637.557 298.293C638.931 300.567 640.683 303.032 642.815 305.687C644.989 308.318 647.398 310.561 650.041 312.416C655.959 316.691 661.956 317.654 668.029 315.307ZM612.078 295.356C615.376 294.324 618.864 292.784 622.544 290.737C626.224 288.689 629.353 286.748 631.931 284.912C634.51 283.076 636.905 281.084 639.119 278.935C641.377 276.761 643.351 274.459 645.043 272.027C646.708 269.552 647.933 266.979 648.719 264.306C650.318 258.428 649.42 252.679 646.024 247.058C640.917 238.605 633.244 234.963 623.005 236.131C616.836 236.869 611.02 238.528 605.556 241.11C600.066 243.648 596.16 245.564 593.838 246.855L589.107 249.488C588.275 249.951 587.512 250.432 586.819 250.933L612.078 295.356ZM676.138 287.748L674.802 285.826C674.205 284.839 674.076 283.85 674.414 282.86C674.796 281.845 675.425 281.093 676.301 280.606C677.177 280.118 678.125 279.992 679.145 280.227C680.139 280.419 680.939 280.92 681.546 281.73L683.038 283.909C687.315 290.989 688.73 297.884 687.282 304.595C685.825 311.483 681.679 316.828 674.845 320.63L674.648 320.74C663.077 326.777 652.079 325.042 641.653 315.535C637.503 311.767 633.717 307.051 630.296 301.387L627.822 297.002C624.449 298.879 620.544 300.65 616.107 302.316L635.263 336.204C635.885 337.233 636.027 338.244 635.689 339.234C635.369 340.158 634.727 340.888 633.764 341.424C623.513 347.127 614.493 352.834 606.705 358.543L606.311 358.762C605.303 359.323 604.263 359.443 603.191 359.122C602.146 358.844 601.363 358.276 600.845 357.418C600.326 356.56 600.136 355.662 600.272 354.726C600.453 353.766 601.105 352.859 602.228 352.005C603.394 351.126 604.771 350.159 606.358 349.104C607.989 348.025 609.576 346.97 611.119 345.94L564.686 265.741L555.865 273.229C555.688 273.615 555.271 273.99 554.614 274.356C553.956 274.721 553.092 274.744 552.02 274.423C550.948 274.102 550.153 273.512 549.635 272.654C548.598 270.938 548.747 269.393 550.083 268.019C557.151 260.245 569.731 251.325 587.823 241.259C598.297 236.119 606.145 232.784 611.367 231.255C616.632 229.701 621.134 228.773 624.873 228.47C628.586 228.124 632.116 228.396 635.463 229.286C642.523 231.09 648.321 235.747 652.858 243.256C656.565 249.392 657.995 255.877 657.149 262.711C656.349 269.234 653.5 275.176 648.604 280.537C649.621 282.609 650.596 284.416 651.529 285.961C652.437 287.463 653.405 289.017 654.434 290.623C655.462 292.229 656.648 293.949 657.989 295.782C659.331 297.615 660.786 299.443 662.355 301.265C663.968 303.062 665.586 304.627 667.211 305.959C670.911 308.887 674.01 309.657 676.507 308.268C679.574 306.562 680.734 303.25 679.988 298.334C679.469 294.666 678.186 291.138 676.138 287.748Z" fill="#4F4F4F"/>
</svg>
