<svg width="768" height="1024" viewBox="0 0 768 1024" fill="none" xmlns="http://www.w3.org/2000/svg">
<rect width="768" height="1024" fill="#FFC79B"/>
<path fill-rule="evenodd" clip-rule="evenodd" d="M768 927.494V59C768 26.4152 741.585 0 709 0H51.7151C47.88 0 44.1304 0.365905 40.4993 1.06471C425.735 24.2562 736.738 423.552 768 927.494Z" fill="#FEE19F"/>
<path d="M182.18 321.066C182.18 321.066 181.592 321.425 180.416 322.143C179.852 322.488 179.254 322.831 178.622 323.172L196.238 354.024C196.734 353.676 197.248 353.34 197.78 353.016C198.328 352.681 198.866 352.33 199.395 351.964L182.18 321.066ZM212.852 330.543L217.695 343.346C217.84 343.7 217.845 344.04 217.709 344.366C217.583 344.708 217.367 344.973 217.061 345.16L216.916 345.248C214.119 346.602 209.868 349.02 204.163 352.503C198.426 356.005 194.378 358.654 192.019 360.448L191.922 360.507C191.165 360.97 190.492 360.816 189.903 360.048C189.71 359.723 189.646 359.375 189.711 359.004C189.792 358.623 190.011 358.29 190.369 358.005C190.743 357.71 191.218 357.365 191.795 356.968C192.388 356.562 193.033 356.113 193.729 355.622L175.993 324.512C174.549 325.261 173.06 325.971 171.526 326.642C171.175 326.79 170.822 326.806 170.468 326.69C170.13 326.565 169.863 326.319 169.667 325.952C169.477 325.559 169.44 325.183 169.557 324.825C169.663 324.45 169.878 324.164 170.2 323.967L170.345 323.879C173.687 322.48 176.832 320.881 179.781 319.08C182.73 317.28 184.962 315.807 186.477 314.661L186.574 314.602C186.944 314.376 187.327 314.318 187.724 314.431C188.11 314.526 188.405 314.745 188.607 315.086C188.81 315.426 188.871 315.787 188.79 316.169C188.699 316.533 188.43 316.875 187.982 317.193C187.073 317.88 185.977 318.66 184.694 319.531L201.957 350.399L202.658 349.971C207.573 346.971 211.507 344.702 214.458 343.165L210.198 331.898C210.053 331.544 210.044 331.195 210.17 330.853C210.286 330.495 210.506 330.217 210.828 330.02C211.15 329.823 211.522 329.784 211.944 329.903C212.356 330.005 212.659 330.218 212.852 330.543ZM214.473 302.513C213.383 303.266 212.25 304.002 211.074 304.72L228.657 334.298C229.202 333.921 229.764 333.556 230.344 333.201C230.941 332.837 231.511 332.467 232.056 332.09L214.473 302.513ZM235.271 330.128C239.605 327.481 243.557 325.224 247.124 323.356L244.116 316.3C243.987 315.936 243.978 315.588 244.088 315.256C244.204 314.897 244.431 314.614 244.77 314.408C245.124 314.191 245.496 314.152 245.886 314.29C246.292 314.419 246.577 314.621 246.741 314.897L246.856 315.092L250.405 323.443C250.549 323.797 250.558 324.145 250.433 324.488C250.316 324.846 250.097 325.124 249.775 325.321L249.726 325.35C245.218 327.704 240.885 330.151 236.727 332.689C232.57 335.227 228.636 337.828 224.926 340.491L224.805 340.565C224.415 340.758 224.032 340.815 223.655 340.736C223.278 340.656 222.989 340.446 222.786 340.105C222.574 339.748 222.513 339.387 222.604 339.022C222.684 338.641 222.925 338.306 223.324 338.018C223.731 337.704 224.187 337.381 224.693 337.05C225.205 336.693 225.71 336.341 226.206 335.993L208.565 306.319C208.03 306.601 207.505 306.9 206.989 307.214L205.466 308.144C205.108 308.318 204.741 308.365 204.364 308.286C203.978 308.19 203.679 307.963 203.466 307.606C203.254 307.249 203.205 306.87 203.318 306.47C203.421 306.053 203.711 305.709 204.188 305.44C204.681 305.162 205.21 304.85 205.774 304.506L207.49 303.458C214.307 299.296 220.796 294.715 226.96 289.713L227.177 289.581C227.5 289.384 227.841 289.33 228.202 289.42C228.553 289.493 228.839 289.661 229.061 289.924L234.992 297.517L235.093 297.688C235.315 298.061 235.357 298.445 235.218 298.839C235.095 299.224 234.873 299.514 234.55 299.711C234.244 299.898 233.912 299.968 233.555 299.921C233.204 299.848 232.9 299.668 232.642 299.383L227.648 292.976C224.717 295.362 221.153 297.992 216.953 300.866L226.49 316.908C229.867 314.647 232.42 312.735 234.148 311.171L234.39 311.023C234.728 310.817 235.104 310.765 235.516 310.867C235.918 310.953 236.216 311.158 236.409 311.483C236.814 312.165 236.724 312.806 236.137 313.408C234.457 314.942 231.748 316.961 228.009 319.464L234.594 330.541L235.271 330.128ZM252.597 278.973C252.597 278.973 251.427 279.665 249.087 281.049L266.399 311.389C266.653 311.189 266.918 311.006 267.192 310.839C267.707 310.524 268.167 310.244 268.569 309.998C268.972 309.752 269.32 309.561 269.614 309.426L252.597 278.973ZM236.797 284.205C240.419 282.613 244.937 280.165 250.352 276.859C255.766 273.554 259.424 271.21 261.326 269.828L261.423 269.769C261.713 269.591 262.042 269.535 262.409 269.598C262.766 269.645 263.001 269.745 263.114 269.897C263.233 270.024 263.394 270.202 263.596 270.432C263.799 270.662 264.071 270.972 264.412 271.361C264.753 271.75 265.149 272.194 265.599 272.693C266.066 273.183 266.555 273.691 267.067 274.219C268.344 275.519 269.392 276.505 270.209 277.178L270.504 277.562C270.706 277.903 270.748 278.287 270.628 278.714C270.525 279.131 270.328 279.428 270.038 279.605C269.426 279.979 268.836 279.93 268.27 279.457C265.975 277.518 263.872 275.385 261.961 273.057C260.182 274.275 257.898 275.736 255.11 277.438L272.185 307.989C275.031 306.385 276.674 305.658 277.116 305.809C277.547 305.943 277.874 306.197 278.096 306.571C278.308 306.928 278.345 307.303 278.206 307.698C278.093 308.099 277.891 308.388 277.601 308.565L277.456 308.653C275.068 309.735 272.424 311.161 269.523 312.932C266.623 314.703 264.199 316.371 262.252 317.935L262.107 318.024C261.752 318.24 261.364 318.289 260.942 318.171C260.537 318.043 260.237 317.816 260.044 317.492C259.851 317.167 259.787 316.819 259.852 316.448C259.988 315.9 261.343 314.763 263.919 313.036L246.515 282.486C243.911 283.943 241.468 285.247 239.187 286.396C239.351 286.893 239.548 287.503 239.779 288.224C240.027 288.936 240.282 289.698 240.545 290.51C241.284 292.935 241.73 294.443 241.884 295.035C242.138 296.052 241.966 296.743 241.37 297.107C241 297.333 240.616 297.39 240.22 297.278C239.814 297.15 239.554 296.988 239.438 296.794L239.206 296.404C239.168 296.339 239.078 296.04 238.937 295.507C238.812 294.964 238.566 294.108 238.2 292.938C237.834 291.768 237.482 290.677 237.145 289.667C236.406 287.353 236.013 286.155 235.964 286.074C235.746 285.3 235.959 284.717 236.604 284.323L236.797 284.205ZM273.524 256.541L270.962 258.106L271.256 264.031L273.524 256.541ZM275.355 251.973C275.725 251.747 276.109 251.69 276.505 251.802C276.891 251.898 277.195 252.132 277.417 252.506C277.639 252.879 277.669 253.281 277.508 253.711L271.59 273.017C271.464 273.36 271.224 273.639 270.87 273.855C270.531 274.062 270.169 274.117 269.782 274.021C269.386 273.909 269.106 273.715 268.942 273.439C268.778 273.164 268.691 272.907 268.682 272.669L267.948 257.358C267.954 256.778 268.208 256.336 268.707 256.031L275.355 251.973ZM321.949 273.328C321.818 272.59 321.588 271.945 321.26 271.393C320.932 270.841 320.482 270.397 319.909 270.061C319.352 269.716 318.75 269.497 318.102 269.406C317.445 269.298 316.762 269.295 316.054 269.396C315.335 269.48 314.625 269.615 313.923 269.801C313.22 269.986 312.545 270.199 311.897 270.44C311.24 270.664 310.591 270.884 309.95 271.098C309.325 271.303 308.614 271.549 307.818 271.835C307.039 272.112 306.241 272.378 305.426 272.632C304.617 272.861 303.801 273.039 302.976 273.166C302.167 273.284 301.381 273.31 300.618 273.245C298.966 273.126 297.602 272.476 296.527 271.297C296.646 272.419 296.96 273.41 297.472 274.27C297.983 275.13 298.557 275.764 299.195 276.171C299.848 276.569 300.547 276.839 301.291 276.982C302.051 277.115 302.837 277.144 303.649 277.069C304.451 276.977 305.253 276.83 306.055 276.628C307.45 276.241 308.62 275.825 309.564 275.382C310.524 274.928 311.323 274.573 311.961 274.316C312.606 274.033 313.294 273.768 314.025 273.521C314.757 273.273 315.507 273.058 316.277 272.876C317.038 272.677 317.774 272.548 318.486 272.489C320.061 272.368 321.215 272.648 321.949 273.328ZM310.66 260.711C307.597 260.325 304.446 261.12 301.207 263.098C299.258 264.288 298.19 265.67 298.005 267.243C297.946 267.809 298.076 268.36 298.395 268.896C298.713 269.431 299.149 269.796 299.703 269.988C300.247 270.165 300.856 270.247 301.529 270.234C302.202 270.221 302.908 270.133 303.646 269.97C304.4 269.797 305.118 269.602 305.801 269.384C306.5 269.156 307.137 268.934 307.71 268.716C308.3 268.489 308.993 268.232 309.788 267.945C310.6 267.649 311.706 267.328 313.104 266.983C314.509 266.612 315.881 266.427 317.221 266.427C320.274 266.465 322.501 267.661 323.899 270.014C325.443 272.611 325.458 275.444 323.945 278.513C322.592 281.263 320.651 283.41 318.121 284.955C313.883 287.542 309.584 288.475 305.223 287.753L305.715 288.581C305.87 288.84 306.035 289.082 306.212 289.306L306.27 289.403C306.463 289.728 306.524 290.089 306.453 290.486C306.398 290.874 306.193 291.176 305.838 291.392C305.5 291.599 305.126 291.672 304.717 291.612C304.334 291.558 304.03 291.379 303.804 291.074C303.579 290.769 303.37 290.455 303.177 290.13L302.569 289.108C301.798 287.809 301.158 286.641 300.65 285.601C300.132 284.546 299.828 283.924 299.738 283.736C299.664 283.538 299.678 283.264 299.778 282.915C299.884 282.541 300.115 282.245 300.47 282.029C300.84 281.802 301.216 281.75 301.595 281.872C301.975 281.994 302.257 282.209 302.44 282.518L302.527 282.664C302.739 283.131 303 283.68 303.308 284.31C307.907 285.617 312.333 284.972 316.587 282.374C318.489 281.214 319.84 279.958 320.64 278.607C321.178 277.702 321.255 276.926 320.869 276.277C320.059 274.914 317.298 275.239 312.587 277.252C312.113 277.453 311.449 277.759 310.595 278.169C309.748 278.554 308.532 278.965 306.946 279.402C305.368 279.812 303.831 279.999 302.337 279.96C299.009 279.868 296.579 278.531 295.045 275.951C293.414 273.208 293.129 270.308 294.188 267.25C295.147 264.431 296.981 262.194 299.688 260.542C303.185 258.407 306.664 257.444 310.127 257.652C309.832 255.753 309.84 254.565 310.149 254.088C310.301 253.863 310.514 253.667 310.788 253.5C311.078 253.323 311.421 253.29 311.817 253.402C312.203 253.498 312.483 253.692 312.657 253.984C312.831 254.276 312.92 254.852 312.926 255.711C312.953 258.194 313.49 260.631 314.538 263.022C314.673 263.36 314.682 263.708 314.566 264.066C314.449 264.425 314.222 264.708 313.884 264.914C313.545 265.121 313.178 265.168 312.782 265.056C312.376 264.928 312.077 264.701 311.884 264.377L311.768 264.182C311.347 263.067 310.978 261.91 310.66 260.711ZM353.083 259.198C354.562 258.472 355.751 257.868 356.65 257.385L338.025 226.055C337.026 226.776 335.972 227.607 334.863 228.55L353.083 259.198ZM368.905 234.442C368.478 232.8 367.652 230.949 366.427 228.888C365.192 226.811 363.546 225.039 361.489 223.575C359.423 222.093 357.224 221.147 354.892 220.734C350.11 219.894 345.324 221.135 340.534 224.457L359.188 255.836C363.98 253.109 367.136 249.236 368.654 244.217C369.65 240.977 369.733 237.719 368.905 234.442ZM332.609 230.522L329.403 233.774C329.032 234 328.657 234.052 328.277 233.93C327.888 233.792 327.601 233.569 327.418 233.261C327.032 232.611 327.073 232.034 327.54 231.527C327.595 231.471 327.887 231.149 328.416 230.561C328.951 229.947 329.699 229.192 330.66 228.295C333.161 225.928 335.846 223.868 338.715 222.117C341.599 220.356 344.477 219.119 347.347 218.406C350.208 217.677 352.974 217.526 355.644 217.953C361.35 218.871 365.94 222.251 369.414 228.093C371.71 231.956 372.726 235.936 372.461 240.035C372.212 243.792 370.879 247.404 368.46 250.872C366.105 254.19 363.01 257.019 359.175 259.361C355.275 261.741 351.412 263.37 347.584 264.247C346.885 264.364 346.396 264.187 346.116 263.717C345.836 263.246 345.761 262.805 345.89 262.395C346.019 261.984 346.245 261.68 346.568 261.483L350.337 260.343L332.609 230.522ZM392.523 233.162C387.925 231.634 383.706 227.64 379.866 221.181C376.103 214.852 375.102 208.938 376.863 203.439C376.902 203.283 376.965 203.111 377.052 202.925C374.991 205.887 373.915 209.231 373.825 212.958C373.724 216.78 374.663 220.354 376.641 223.681C379.313 228.176 383.083 231.117 387.948 232.504C389.455 232.934 390.98 233.153 392.523 233.162ZM406.633 205.47C405.948 204.318 405.104 203.23 404.1 202.206C403.086 201.166 401.971 200.232 400.754 199.404C399.544 198.55 398.259 197.831 396.901 197.244C395.548 196.632 394.206 196.202 392.872 195.955C389.932 195.405 387.455 195.745 385.44 196.975C381.476 199.395 379.373 202.913 379.13 207.529C378.923 211.615 380.007 215.654 382.38 219.646C384.117 222.568 385.754 224.731 387.292 226.136C388.831 227.542 390.195 228.6 391.386 229.31C392.584 229.995 393.833 230.471 395.134 230.738C397.898 231.285 400.641 230.728 403.364 229.065C405.54 227.737 407.162 225.607 408.231 222.677C409.183 219.994 409.508 217.03 409.205 213.787C408.899 210.612 408.042 207.839 406.633 205.47ZM409.147 203.935C410.131 205.591 410.878 207.346 411.389 209.202C411.906 211.032 412.192 212.881 412.248 214.749C412.321 216.607 412.16 218.442 411.765 220.253C411.37 222.065 410.774 223.778 409.977 225.393C408.286 228.792 405.878 231.446 402.751 233.354C397.965 236.276 392.753 236.948 387.114 235.369C383.585 234.383 380.446 232.539 377.698 229.837C376.324 228.486 375.126 226.951 374.103 225.23C372.087 221.838 371.008 218.195 370.867 214.3C370.728 210.557 371.482 207.023 373.128 203.695C374.806 200.348 377.232 197.706 380.407 195.768C383.678 193.771 387.245 192.843 391.107 192.985C394.724 193.121 398.153 194.179 401.395 196.16C404.653 198.13 407.237 200.722 409.147 203.935Z" fill="#4F4F4F"/>
<path d="M142.632 606.886C146.591 605.024 149.775 603.473 152.184 602.233L104.125 518.232C101.441 520.1 98.605 522.261 95.6188 524.713L142.632 606.886ZM185.741 541.877C184.681 537.5 182.57 532.549 179.408 527.022C176.222 521.453 171.931 516.678 166.535 512.697C161.114 508.673 155.317 506.061 149.145 504.862C136.485 502.417 123.722 505.497 110.858 514.102L158.991 598.233C171.836 591.209 180.386 581.069 184.641 567.814C187.427 559.258 187.794 550.613 185.741 541.877ZM89.5484 529.849L80.8907 538.337C79.8966 538.921 78.8979 539.043 77.8945 538.702C76.8662 538.318 76.1155 537.713 75.6425 536.886C74.6467 535.145 74.7808 533.613 76.0446 532.289C76.1926 532.144 76.9817 531.303 78.4118 529.765C79.8603 528.158 81.8798 526.186 84.4704 523.85C91.2179 517.677 98.4384 512.33 106.132 507.809C113.869 503.264 121.564 500.109 129.217 498.345C136.845 496.537 144.194 496.26 151.264 497.513C166.375 500.204 178.412 509.382 187.374 525.046C193.298 535.402 195.818 546.014 194.933 556.883C194.107 566.845 190.405 576.375 183.828 585.471C177.43 594.173 169.087 601.545 158.8 607.589C148.34 613.735 138.01 617.886 127.809 620.042C125.948 620.322 124.656 619.831 123.934 618.569C123.212 617.307 123.032 616.134 123.393 615.05C123.755 613.965 124.368 613.169 125.232 612.661L135.292 609.803L89.5484 529.849ZM205.241 460.13C205.241 460.13 203.664 461.057 200.509 462.911C198.996 463.8 197.393 464.683 195.701 465.561L240.242 546.744L248.865 541.678L205.241 460.13ZM173.694 467.067C182.948 463.257 191.444 459.08 199.181 454.534C206.918 449.988 212.823 446.228 216.896 443.253L217.155 443.101C218.149 442.517 219.17 442.382 220.216 442.698C221.263 443.013 222.048 443.628 222.571 444.541C223.068 445.412 223.202 446.351 222.97 447.359C222.713 448.324 221.996 449.24 220.817 450.107C218.694 451.645 215.75 453.665 211.984 456.168L255.951 537.863C258.514 536.59 262.057 534.857 266.578 532.666C268.858 531.907 270.584 532.551 271.754 534.596C272.215 535.604 272.249 536.572 271.856 537.501C271.532 538.447 270.937 539.174 270.073 539.682L269.813 539.835C255.229 546.543 241.592 554.555 228.904 563.871L228.644 564.023C227.65 564.607 226.642 564.764 225.621 564.492C224.574 564.177 223.802 563.584 223.304 562.714C222.806 561.843 222.651 560.917 222.84 559.934C223.071 558.926 223.755 558.001 224.891 557.159C226.069 556.292 227.421 555.324 228.946 554.254C230.513 553.158 232.059 552.075 233.584 551.005L188.622 468.935C184.756 470.858 180.772 472.676 176.669 474.388C175.73 474.766 174.793 474.793 173.858 474.471C172.966 474.123 172.246 473.47 171.698 472.513C171.15 471.555 171.104 470.565 171.558 469.543C171.988 468.476 172.57 467.727 173.305 467.296L173.694 467.067ZM264.717 423.877C264.717 423.877 263.139 424.804 259.984 426.658C258.471 427.547 256.868 428.43 255.176 429.308L300.427 511.732L309.049 506.665L264.717 423.877ZM299.412 392.765C301.704 391.826 304.277 390.518 307.129 388.842C312.748 385.54 317.931 381.477 322.679 376.653C322.802 376.465 323.209 376.167 323.901 375.761C324.593 375.354 325.44 375.322 326.443 375.662C327.465 375.934 328.2 376.462 328.648 377.245C329.694 379.072 329.585 380.648 328.321 381.972C325.559 384.816 322.928 387.233 320.429 389.225C329.58 400.476 337.355 411.693 343.753 422.875C353.113 439.236 361.95 457.357 370.264 477.239C370.866 479.502 370.346 481.116 368.703 482.081C367.104 483.021 365.625 482.959 364.267 481.897C356.097 475.592 345.326 468.374 331.954 460.243C318.557 452.069 309.043 446.292 303.414 442.913C293.737 437.204 284.2 431.587 274.802 426.062L316.136 502.851C318.699 501.577 322.241 499.845 326.763 497.653C327.702 497.276 328.639 497.249 329.574 497.571C330.553 497.868 331.316 498.496 331.864 499.453C332.386 500.367 332.455 501.344 332.068 502.385C331.682 503.426 331.078 504.187 330.257 504.67L329.998 504.822C315.414 511.531 301.777 519.543 289.088 528.859L288.829 529.011C287.878 529.57 286.858 529.704 285.768 529.414C284.746 529.142 283.986 528.571 283.488 527.701C282.991 526.831 282.836 525.904 283.024 524.921C283.256 523.913 283.94 522.988 285.075 522.147C286.254 521.28 287.606 520.311 289.13 519.241C290.698 518.146 292.244 517.063 293.769 515.993L248.135 432.748C244.268 434.671 240.284 436.488 236.182 438.201C235.243 438.578 234.305 438.606 233.37 438.283C232.453 437.892 231.721 437.217 231.173 436.26C230.626 435.303 230.579 434.313 231.033 433.29C231.463 432.224 232.045 431.475 232.78 431.043L233.169 430.815C243.486 426.439 252.794 421.813 261.092 416.937L265.89 414.118C267.143 413.382 268.185 413.235 269.016 413.677C269.822 414.076 271.173 414.822 273.07 415.917C274.967 417.012 277.431 418.442 280.462 420.207C283.493 421.973 286.977 424.025 290.914 426.363C294.893 428.676 299.118 431.164 303.588 433.829C308.101 436.468 312.744 439.234 317.518 442.127C322.291 445.02 327.009 447.916 331.672 450.816C342.85 457.737 351.453 463.234 357.48 467.309C351.053 452.946 344.964 440.739 339.213 430.688C331.72 417.59 323.311 405.264 313.985 393.709C313.473 394.126 312.958 394.487 312.439 394.791L310.754 395.782C304.875 399.236 301.332 400.765 300.125 400.37C298.892 399.931 298.014 399.255 297.492 398.341C296.969 397.428 296.866 396.441 297.185 395.382C297.546 394.298 298.159 393.502 299.023 392.994L299.412 392.765ZM373.765 359.806C373.765 359.806 372.188 360.733 369.033 362.587C367.52 363.475 365.917 364.359 364.225 365.237L409.476 447.66L418.098 442.594L373.765 359.806ZM408.461 328.694C410.753 327.754 413.326 326.446 416.178 324.77C421.797 321.469 426.98 317.406 431.728 312.582C431.851 312.393 432.258 312.096 432.95 311.689C433.641 311.283 434.489 311.25 435.492 311.591C436.514 311.863 437.249 312.39 437.697 313.173C438.743 315.001 438.634 316.577 437.37 317.901C434.608 320.744 431.977 323.162 429.478 325.153C438.629 336.404 446.404 347.621 452.802 358.804C462.162 375.164 470.999 393.286 479.313 413.168C479.915 415.431 479.394 417.045 477.752 418.01C476.153 418.949 474.674 418.888 473.315 417.826C465.146 411.521 454.375 404.303 441.003 396.172C427.606 387.997 418.092 382.22 412.463 378.842C402.786 373.132 393.249 367.515 383.851 361.99L425.185 438.779C427.748 437.506 431.29 435.773 435.812 433.582C436.751 433.205 437.688 433.177 438.623 433.5C439.602 433.797 440.365 434.424 440.913 435.381C441.435 436.295 441.504 437.272 441.117 438.313C440.731 439.354 440.127 440.116 439.306 440.598L439.047 440.751C424.462 447.459 410.826 455.471 398.137 464.787L397.878 464.939C396.927 465.498 395.907 465.633 394.817 465.343C393.795 465.071 393.035 464.5 392.537 463.63C392.04 462.759 391.885 461.833 392.073 460.85C392.305 459.842 392.989 458.917 394.124 458.075C395.303 457.208 396.655 456.24 398.179 455.17C399.747 454.074 401.293 452.991 402.817 451.921L357.184 368.676C353.317 370.599 349.333 372.417 345.231 374.13C344.292 374.507 343.354 374.534 342.419 374.212C341.502 373.82 340.77 373.146 340.222 372.189C339.674 371.231 339.628 370.241 340.082 369.219C340.512 368.152 341.094 367.403 341.829 366.972L342.218 366.743C352.535 362.367 361.843 357.741 370.141 352.866L374.939 350.047C376.192 349.31 377.234 349.163 378.065 349.605C378.87 350.004 380.222 350.751 382.119 351.846C384.015 352.941 386.48 354.371 389.511 356.136C392.542 357.901 396.026 359.953 399.963 362.291C403.942 364.604 408.167 367.093 412.637 369.757C417.15 372.396 421.793 375.162 426.567 378.055C431.34 380.948 436.058 383.845 440.72 386.745C451.899 393.665 460.501 399.163 466.529 403.238C460.102 388.875 454.013 376.668 448.262 366.616C440.769 353.519 432.36 341.193 423.034 329.637C422.522 330.054 422.007 330.415 421.488 330.72L419.803 331.71C413.924 335.164 410.381 336.693 409.174 336.298C407.941 335.86 407.063 335.184 406.54 334.27C406.018 333.356 405.915 332.37 406.233 331.311C406.595 330.227 407.208 329.43 408.072 328.922L408.461 328.694ZM482.092 298.862C479.166 300.814 476.125 302.717 472.97 304.571L518.34 383.872C519.803 382.896 521.312 381.951 522.868 381.037C524.467 380.097 525.999 379.139 527.462 378.164L482.092 298.862ZM536.084 373.097C547.711 366.266 558.302 360.45 567.857 355.65L560.183 336.787C559.858 335.815 559.849 334.891 560.155 334.013C560.48 333.066 561.096 332.326 562.004 331.793C562.955 331.234 563.944 331.147 564.972 331.531C566.044 331.89 566.791 332.439 567.215 333.179L567.513 333.701L576.563 356.029C576.931 356.976 576.94 357.9 576.591 358.804C576.266 359.75 575.671 360.477 574.807 360.985L574.677 361.061C562.602 367.109 550.989 373.409 539.838 379.961C528.687 386.513 518.127 393.241 508.159 400.144L507.835 400.335C506.791 400.832 505.77 400.966 504.773 400.738C503.777 400.51 503.017 399.939 502.494 399.025C501.946 398.068 501.801 397.107 502.057 396.142C502.289 395.134 502.942 394.256 504.016 393.509C505.108 392.693 506.333 391.856 507.692 391C509.068 390.075 510.423 389.163 511.756 388.263L466.237 308.701C464.804 309.427 463.396 310.196 462.013 311.008L457.929 313.408C456.971 313.854 455.994 313.963 454.997 313.735C453.976 313.463 453.191 312.849 452.643 311.892C452.096 310.934 451.981 309.926 452.299 308.867C452.592 307.765 453.378 306.867 454.656 306.174C455.978 305.456 457.395 304.652 458.908 303.763L463.511 301.059C481.794 290.317 499.228 278.445 515.815 265.444L516.398 265.101C517.263 264.594 518.172 264.466 519.125 264.72C520.054 264.93 520.807 265.389 521.385 266.096L536.794 286.518L537.056 286.975C537.628 287.976 537.721 288.997 537.335 290.038C536.992 291.053 536.388 291.815 535.524 292.323C534.703 292.805 533.818 292.976 532.871 292.835C531.943 292.625 531.143 292.135 530.472 291.367L517.496 274.137C509.61 280.34 500.028 287.161 488.75 294.602L513.358 337.614C522.426 331.762 529.289 326.799 533.947 322.726L534.595 322.345C535.503 321.812 536.501 321.69 537.591 321.98C538.656 322.226 539.438 322.785 539.936 323.655C540.981 325.482 540.712 327.181 539.127 328.752C534.599 332.749 527.317 337.988 517.279 344.467L534.269 374.164L536.084 373.097ZM605.899 331.903C607.936 330.416 610.705 328.644 614.206 326.587L569.91 243.864C566.379 246.171 563.349 248.242 560.818 250.078L605.899 331.903ZM655.326 304.432C648.256 301.261 640.937 293.061 633.369 279.833L632.025 277.484C631.577 276.701 631.222 275.979 630.96 275.319C627.043 278.667 624.343 280.864 622.862 281.908C623.386 283.228 624.32 285.063 625.665 287.413C626.984 289.719 628.672 292.215 630.729 294.902C632.829 297.563 635.163 299.826 637.731 301.689C643.48 305.985 649.345 306.9 655.326 304.432ZM600.729 284.709C603.973 283.617 607.411 282.004 611.041 279.871C614.672 277.738 617.762 275.719 620.31 273.815C622.859 271.91 625.231 269.848 627.426 267.628C629.664 265.383 631.627 263.009 633.313 260.506C634.975 257.96 636.207 255.318 637.008 252.58C638.646 246.559 637.834 240.699 634.573 234.999C629.669 226.427 622.192 222.797 612.143 224.108C606.089 224.933 600.369 226.695 594.983 229.394C589.572 232.05 585.722 234.051 583.431 235.397L578.763 238.139C577.942 238.622 577.189 239.122 576.504 239.641L600.729 284.709ZM663.601 276.198L662.314 274.251C661.742 273.251 661.627 272.242 661.97 271.227C662.356 270.186 662.981 269.412 663.846 268.904C664.71 268.396 665.641 268.256 666.638 268.484C667.61 268.669 668.388 269.171 668.972 269.991L670.409 272.199C674.516 279.378 675.821 286.402 674.322 293.271C672.811 300.322 668.685 305.827 661.942 309.789L661.748 309.903C650.336 316.201 639.578 314.557 629.473 304.971C625.451 301.172 621.797 296.4 618.511 290.656L616.139 286.207C612.811 288.163 608.963 290.017 604.595 291.769L622.965 326.15C623.562 327.194 623.69 328.224 623.347 329.239C623.022 330.186 622.384 330.938 621.433 331.497C611.319 337.44 602.412 343.371 594.711 349.291L594.322 349.519C593.327 350.104 592.307 350.238 591.26 349.923C590.239 349.651 589.479 349.08 588.981 348.21C588.483 347.339 588.307 346.426 588.452 345.468C588.641 344.485 589.29 343.551 590.401 342.666C591.555 341.756 592.915 340.753 594.483 339.657C596.094 338.536 597.662 337.441 599.186 336.371L554.636 255.019L545.901 262.767C545.723 263.162 545.31 263.55 544.662 263.931C544.013 264.312 543.166 264.345 542.119 264.03C541.073 263.714 540.3 263.121 539.802 262.251C538.807 260.511 538.971 258.931 540.297 257.513C547.317 249.493 559.752 240.24 577.602 229.751C587.929 224.382 595.66 220.886 600.795 219.264C605.974 217.616 610.398 216.616 614.065 216.264C617.708 215.868 621.164 216.104 624.434 216.974C631.332 218.735 636.959 223.423 641.315 231.037C644.875 237.26 646.2 243.865 645.289 250.853C644.427 257.523 641.565 263.623 636.702 269.155C637.674 271.258 638.608 273.092 639.505 274.659C640.376 276.182 641.306 277.757 642.295 279.385C643.285 281.013 644.426 282.756 645.719 284.612C647.012 286.469 648.417 288.318 649.932 290.16C651.491 291.976 653.059 293.555 654.635 294.897C658.227 297.844 661.255 298.594 663.719 297.147C666.744 295.369 667.92 291.974 667.248 286.963C666.783 283.224 665.568 279.636 663.601 276.198Z" fill="#4F4F4F"/>
</svg>
